<svg xmlns="http://www.w3.org/2000/svg" xmlns:xlink="http://www.w3.org/1999/xlink" width="506" zoomAndPan="magnify" viewBox="0 0 379.5 62.999997" height="84" preserveAspectRatio="xMidYMid meet" version="1.0"><defs><g/></defs><g fill="#fcf9f2" fill-opacity="1"><g transform="translate(10.97757, 44.192696)"><g><path d="M 6.6875 0.21875 C 5.269531 0.21875 3.957031 -0.0859375 2.75 -0.703125 C 1.550781 -1.316406 0.578125 -2.191406 -0.171875 -3.328125 L 1.375 -5.09375 C 2.75 -3.0625 4.53125 -2.046875 6.71875 -2.046875 C 9.78125 -2.046875 11.3125 -3.863281 11.3125 -7.5 L 11.3125 -22.484375 L 2.265625 -22.484375 L 2.265625 -24.75 L 13.890625 -24.75 L 13.890625 -7.609375 C 13.890625 -5.015625 13.28125 -3.0625 12.0625 -1.75 C 10.851562 -0.4375 9.0625 0.21875 6.6875 0.21875 Z M 6.6875 0.21875 "/></g></g></g><g fill="#fcf9f2" fill-opacity="1"><g transform="translate(28.083863, 44.192696)"><g><path d="M 14 0.21875 C 10.789062 0.21875 8.289062 -0.695312 6.5 -2.53125 C 4.707031 -4.375 3.8125 -7.054688 3.8125 -10.578125 L 3.8125 -24.75 L 6.4375 -24.75 L 6.4375 -10.671875 C 6.4375 -7.796875 7.082031 -5.648438 8.375 -4.234375 C 9.675781 -2.828125 11.550781 -2.125 14 -2.125 C 16.476562 -2.125 18.363281 -2.828125 19.65625 -4.234375 C 20.957031 -5.648438 21.609375 -7.796875 21.609375 -10.671875 L 21.609375 -24.75 L 24.15625 -24.75 L 24.15625 -10.578125 C 24.15625 -7.054688 23.265625 -4.375 21.484375 -2.53125 C 19.703125 -0.695312 17.207031 0.21875 14 0.21875 Z M 14 0.21875 "/></g></g></g><g fill="#fcf9f2" fill-opacity="1"><g transform="translate(55.47529, 44.192696)"><g><path d="M 4.03125 -24.75 L 6.640625 -24.75 L 6.640625 -2.265625 L 20.515625 -2.265625 L 20.515625 0 L 4.03125 0 Z M 4.03125 -24.75 "/></g></g></g><g fill="#fcf9f2" fill-opacity="1"><g transform="translate(75.691855, 44.192696)"><g><path d="M 4.03125 -24.75 L 6.640625 -24.75 L 6.640625 0 L 4.03125 0 Z M 4.03125 -24.75 "/></g></g></g><g fill="#fcf9f2" fill-opacity="1"><g transform="translate(85.764663, 44.192696)"><g><path d="M 21.53125 -2.265625 L 21.53125 0 L 4.03125 0 L 4.03125 -24.75 L 21 -24.75 L 21 -22.484375 L 6.640625 -22.484375 L 6.640625 -13.6875 L 19.453125 -13.6875 L 19.453125 -11.453125 L 6.640625 -11.453125 L 6.640625 -2.265625 Z M 21.53125 -2.265625 "/></g></g></g><g fill="#fcf9f2" fill-opacity="1"><g transform="translate(108.808759, 44.192696)"><g/></g></g><g fill="#fcf9f2" fill-opacity="1"><g transform="translate(117.467806, 44.192696)"><g><path d="M 8.84375 -22.484375 L 0.140625 -22.484375 L 0.140625 -24.75 L 20.15625 -24.75 L 20.15625 -22.484375 L 11.453125 -22.484375 L 11.453125 0 L 8.84375 0 Z M 8.84375 -22.484375 "/></g></g></g><g fill="#fcf9f2" fill-opacity="1"><g transform="translate(137.154213, 44.192696)"><g><path d="M 4.03125 -24.75 L 6.640625 -24.75 L 6.640625 0 L 4.03125 0 Z M 4.03125 -24.75 "/></g></g></g><g fill="#fcf9f2" fill-opacity="1"><g transform="translate(147.227021, 44.192696)"><g><path d="M 10.859375 0.21875 C 9.015625 0.21875 7.25 -0.078125 5.5625 -0.671875 C 3.882812 -1.265625 2.582031 -2.039062 1.65625 -3 L 2.6875 -5.015625 C 3.582031 -4.117188 4.769531 -3.394531 6.25 -2.84375 C 7.738281 -2.289062 9.273438 -2.015625 10.859375 -2.015625 C 13.066406 -2.015625 14.722656 -2.421875 15.828125 -3.234375 C 16.941406 -4.046875 17.5 -5.101562 17.5 -6.40625 C 17.5 -7.394531 17.195312 -8.179688 16.59375 -8.765625 C 16 -9.359375 15.265625 -9.8125 14.390625 -10.125 C 13.515625 -10.445312 12.300781 -10.796875 10.75 -11.171875 C 8.882812 -11.640625 7.394531 -12.09375 6.28125 -12.53125 C 5.175781 -12.96875 4.226562 -13.632812 3.4375 -14.53125 C 2.65625 -15.425781 2.265625 -16.640625 2.265625 -18.171875 C 2.265625 -19.421875 2.59375 -20.554688 3.25 -21.578125 C 3.914062 -22.609375 4.929688 -23.429688 6.296875 -24.046875 C 7.660156 -24.660156 9.359375 -24.96875 11.390625 -24.96875 C 12.796875 -24.96875 14.175781 -24.769531 15.53125 -24.375 C 16.894531 -23.988281 18.070312 -23.453125 19.0625 -22.765625 L 18.171875 -20.6875 C 17.140625 -21.363281 16.03125 -21.875 14.84375 -22.21875 C 13.664062 -22.5625 12.515625 -22.734375 11.390625 -22.734375 C 9.210938 -22.734375 7.578125 -22.3125 6.484375 -21.46875 C 5.390625 -20.632812 4.84375 -19.5625 4.84375 -18.25 C 4.84375 -17.257812 5.140625 -16.460938 5.734375 -15.859375 C 6.335938 -15.253906 7.09375 -14.789062 8 -14.46875 C 8.914062 -14.15625 10.140625 -13.8125 11.671875 -13.4375 C 13.484375 -12.988281 14.945312 -12.546875 16.0625 -12.109375 C 17.1875 -11.671875 18.132812 -11.007812 18.90625 -10.125 C 19.6875 -9.238281 20.078125 -8.046875 20.078125 -6.546875 C 20.078125 -5.296875 19.738281 -4.15625 19.0625 -3.125 C 18.394531 -2.101562 17.363281 -1.289062 15.96875 -0.6875 C 14.582031 -0.0820312 12.878906 0.21875 10.859375 0.21875 Z M 10.859375 0.21875 "/></g></g></g><g fill="#fcf9f2" fill-opacity="1"><g transform="translate(168.362537, 44.192696)"><g><path d="M 21.53125 -2.265625 L 21.53125 0 L 4.03125 0 L 4.03125 -24.75 L 21 -24.75 L 21 -22.484375 L 6.640625 -22.484375 L 6.640625 -13.6875 L 19.453125 -13.6875 L 19.453125 -11.453125 L 6.640625 -11.453125 L 6.640625 -2.265625 Z M 21.53125 -2.265625 "/></g></g></g><g fill="#fcf9f2" fill-opacity="1"><g transform="translate(191.406634, 44.192696)"><g><path d="M 14.84375 0.21875 C 12.394531 0.21875 10.175781 -0.328125 8.1875 -1.421875 C 6.195312 -2.523438 4.640625 -4.03125 3.515625 -5.9375 C 2.398438 -7.84375 1.84375 -9.988281 1.84375 -12.375 C 1.84375 -14.757812 2.398438 -16.90625 3.515625 -18.8125 C 4.640625 -20.71875 6.195312 -22.21875 8.1875 -23.3125 C 10.175781 -24.414062 12.394531 -24.96875 14.84375 -24.96875 C 17.300781 -24.96875 19.515625 -24.421875 21.484375 -23.328125 C 23.453125 -22.242188 25 -20.742188 26.125 -18.828125 C 27.257812 -16.910156 27.828125 -14.757812 27.828125 -12.375 C 27.828125 -9.988281 27.257812 -7.835938 26.125 -5.921875 C 25 -4.003906 23.453125 -2.5 21.484375 -1.40625 C 19.515625 -0.320312 17.300781 0.21875 14.84375 0.21875 Z M 14.84375 -2.125 C 16.800781 -2.125 18.570312 -2.566406 20.15625 -3.453125 C 21.738281 -4.335938 22.976562 -5.5625 23.875 -7.125 C 24.769531 -8.6875 25.21875 -10.4375 25.21875 -12.375 C 25.21875 -14.3125 24.769531 -16.0625 23.875 -17.625 C 22.976562 -19.195312 21.738281 -20.421875 20.15625 -21.296875 C 18.570312 -22.179688 16.800781 -22.625 14.84375 -22.625 C 12.894531 -22.625 11.125 -22.179688 9.53125 -21.296875 C 7.9375 -20.421875 6.6875 -19.195312 5.78125 -17.625 C 4.875 -16.0625 4.421875 -14.3125 4.421875 -12.375 C 4.421875 -10.4375 4.875 -8.6875 5.78125 -7.125 C 6.6875 -5.5625 7.9375 -4.335938 9.53125 -3.453125 C 11.125 -2.566406 12.894531 -2.125 14.84375 -2.125 Z M 14.84375 -2.125 "/></g></g></g><g fill="#fcf9f2" fill-opacity="1"><g transform="translate(220.459226, 44.192696)"><g/></g></g><g fill="#fcf9f2" fill-opacity="1"><g transform="translate(229.118273, 44.192696)"><g><path d="M 4.03125 -24.75 L 14.109375 -24.75 C 16.722656 -24.75 19.03125 -24.222656 21.03125 -23.171875 C 23.039062 -22.128906 24.597656 -20.671875 25.703125 -18.796875 C 26.816406 -16.921875 27.375 -14.78125 27.375 -12.375 C 27.375 -9.96875 26.816406 -7.828125 25.703125 -5.953125 C 24.597656 -4.078125 23.039062 -2.613281 21.03125 -1.5625 C 19.03125 -0.519531 16.722656 0 14.109375 0 L 4.03125 0 Z M 13.96875 -2.265625 C 16.132812 -2.265625 18.03125 -2.691406 19.65625 -3.546875 C 21.28125 -4.410156 22.539062 -5.601562 23.4375 -7.125 C 24.332031 -8.644531 24.78125 -10.394531 24.78125 -12.375 C 24.78125 -14.351562 24.332031 -16.101562 23.4375 -17.625 C 22.539062 -19.144531 21.28125 -20.332031 19.65625 -21.1875 C 18.03125 -22.050781 16.132812 -22.484375 13.96875 -22.484375 L 6.640625 -22.484375 L 6.640625 -2.265625 Z M 13.96875 -2.265625 "/></g></g></g><g fill="#fcf9f2" fill-opacity="1"><g transform="translate(257.711382, 44.192696)"><g><path d="M 21.53125 -2.265625 L 21.53125 0 L 4.03125 0 L 4.03125 -24.75 L 21 -24.75 L 21 -22.484375 L 6.640625 -22.484375 L 6.640625 -13.6875 L 19.453125 -13.6875 L 19.453125 -11.453125 L 6.640625 -11.453125 L 6.640625 -2.265625 Z M 21.53125 -2.265625 "/></g></g></g><g fill="#fcf9f2" fill-opacity="1"><g transform="translate(280.755491, 44.192696)"><g><path d="M 10.859375 0.21875 C 9.015625 0.21875 7.25 -0.078125 5.5625 -0.671875 C 3.882812 -1.265625 2.582031 -2.039062 1.65625 -3 L 2.6875 -5.015625 C 3.582031 -4.117188 4.769531 -3.394531 6.25 -2.84375 C 7.738281 -2.289062 9.273438 -2.015625 10.859375 -2.015625 C 13.066406 -2.015625 14.722656 -2.421875 15.828125 -3.234375 C 16.941406 -4.046875 17.5 -5.101562 17.5 -6.40625 C 17.5 -7.394531 17.195312 -8.179688 16.59375 -8.765625 C 16 -9.359375 15.265625 -9.8125 14.390625 -10.125 C 13.515625 -10.445312 12.300781 -10.796875 10.75 -11.171875 C 8.882812 -11.640625 7.394531 -12.09375 6.28125 -12.53125 C 5.175781 -12.96875 4.226562 -13.632812 3.4375 -14.53125 C 2.65625 -15.425781 2.265625 -16.640625 2.265625 -18.171875 C 2.265625 -19.421875 2.59375 -20.554688 3.25 -21.578125 C 3.914062 -22.609375 4.929688 -23.429688 6.296875 -24.046875 C 7.660156 -24.660156 9.359375 -24.96875 11.390625 -24.96875 C 12.796875 -24.96875 14.175781 -24.769531 15.53125 -24.375 C 16.894531 -23.988281 18.070312 -23.453125 19.0625 -22.765625 L 18.171875 -20.6875 C 17.140625 -21.363281 16.03125 -21.875 14.84375 -22.21875 C 13.664062 -22.5625 12.515625 -22.734375 11.390625 -22.734375 C 9.210938 -22.734375 7.578125 -22.3125 6.484375 -21.46875 C 5.390625 -20.632812 4.84375 -19.5625 4.84375 -18.25 C 4.84375 -17.257812 5.140625 -16.460938 5.734375 -15.859375 C 6.335938 -15.253906 7.09375 -14.789062 8 -14.46875 C 8.914062 -14.15625 10.140625 -13.8125 11.671875 -13.4375 C 13.484375 -12.988281 14.945312 -12.546875 16.0625 -12.109375 C 17.1875 -11.671875 18.132812 -11.007812 18.90625 -10.125 C 19.6875 -9.238281 20.078125 -8.046875 20.078125 -6.546875 C 20.078125 -5.296875 19.738281 -4.15625 19.0625 -3.125 C 18.394531 -2.101562 17.363281 -1.289062 15.96875 -0.6875 C 14.582031 -0.0820312 12.878906 0.21875 10.859375 0.21875 Z M 10.859375 0.21875 "/></g></g></g><g fill="#fcf9f2" fill-opacity="1"><g transform="translate(301.891019, 44.192696)"><g><path d="M 4.03125 -24.75 L 6.640625 -24.75 L 6.640625 0 L 4.03125 0 Z M 4.03125 -24.75 "/></g></g></g><g fill="#fcf9f2" fill-opacity="1"><g transform="translate(311.963837, 44.192696)"><g><path d="M 21.46875 -12.375 L 23.96875 -12.375 L 23.96875 -2.9375 C 22.8125 -1.925781 21.441406 -1.144531 19.859375 -0.59375 C 18.285156 -0.0507812 16.628906 0.21875 14.890625 0.21875 C 12.410156 0.21875 10.179688 -0.320312 8.203125 -1.40625 C 6.222656 -2.5 4.664062 -4.003906 3.53125 -5.921875 C 2.40625 -7.835938 1.84375 -9.988281 1.84375 -12.375 C 1.84375 -14.757812 2.40625 -16.910156 3.53125 -18.828125 C 4.664062 -20.742188 6.222656 -22.242188 8.203125 -23.328125 C 10.179688 -24.421875 12.421875 -24.96875 14.921875 -24.96875 C 16.804688 -24.96875 18.535156 -24.664062 20.109375 -24.0625 C 21.691406 -23.457031 23.023438 -22.566406 24.109375 -21.390625 L 22.484375 -19.734375 C 20.523438 -21.660156 18.039062 -22.625 15.03125 -22.625 C 13.019531 -22.625 11.207031 -22.179688 9.59375 -21.296875 C 7.976562 -20.421875 6.710938 -19.195312 5.796875 -17.625 C 4.878906 -16.0625 4.421875 -14.3125 4.421875 -12.375 C 4.421875 -10.4375 4.878906 -8.691406 5.796875 -7.140625 C 6.710938 -5.585938 7.972656 -4.363281 9.578125 -3.46875 C 11.179688 -2.570312 12.988281 -2.125 15 -2.125 C 17.539062 -2.125 19.695312 -2.757812 21.46875 -4.03125 Z M 21.46875 -12.375 "/></g></g></g><g fill="#fcf9f2" fill-opacity="1"><g transform="translate(338.683705, 44.192696)"><g><path d="M 24.71875 -24.75 L 24.71875 0 L 22.5625 0 L 6.640625 -20.078125 L 6.640625 0 L 4.03125 0 L 4.03125 -24.75 L 6.1875 -24.75 L 22.140625 -4.671875 L 22.140625 -24.75 Z M 24.71875 -24.75 "/></g></g></g></svg>